<svg width="30" height="30" viewBox="0 0 30 30" fill="none" xmlns="http://www.w3.org/2000/svg">
<g id="Google">
<g id="Google_2">
<rect id="Rectangle" width="30" height="30" rx="15" fill="#EA4335"/>
<path id="Vector" d="M5.00627 15.013C4.8064 9.75068 9.41569 4.8877 14.6833 4.8246C17.368 4.59562 19.9799 5.63819 22.0117 7.3386C21.1783 8.25499 20.3303 9.16078 19.4245 10.0088C17.6358 8.92209 15.4823 8.09395 13.3918 8.82944C10.0201 9.7895 7.97824 13.7705 9.22597 17.069C10.2593 20.5139 14.4494 22.4045 17.7333 20.9573C19.4337 20.3485 20.5548 18.7795 21.0468 17.0937C19.098 17.0549 17.1487 17.0791 15.1999 17.0253C15.1951 15.8658 15.1902 14.7107 15.1951 13.5512C18.445 13.5464 21.6998 13.5367 24.9546 13.5658C25.1544 16.4067 24.7353 19.4471 22.8884 21.7272C20.3594 24.982 15.687 25.9372 11.886 24.6604C7.85205 23.3354 4.91847 19.2715 5.00627 15.013Z" fill="white"/>
</g>
</g>
</svg>
