<svg width="30" height="30" viewBox="0 0 30 30" fill="none" xmlns="http://www.w3.org/2000/svg">
<rect width="30" height="30" rx="15" fill="#005FF9"/>
<path d="M18.0079 15C18.0079 16.6586 16.6586 18.0079 15 18.0079C13.3414 18.0079 11.9921 16.6586 11.9921 15C11.9921 13.3414 13.3414 11.9921 15 11.9921C16.6586 11.9921 18.0079 13.3414 18.0079 15ZM15 5C9.48571 5 5 9.48571 5 15C5 20.5143 9.48571 25 15 25C17.02 25 18.9679 24.3986 20.6329 23.2607L20.6614 23.2407L19.3143 21.675L19.2914 21.6893C18.01 22.5143 16.5257 22.95 15 22.95C10.6164 22.95 7.05 19.3836 7.05 15C7.05 10.6164 10.6164 7.05 15 7.05C19.3836 7.05 22.95 10.6164 22.95 15C22.95 15.5679 22.8864 16.1429 22.7629 16.7086C22.5114 17.7407 21.7886 18.0564 21.2464 18.015C20.7007 17.9707 20.0621 17.5821 20.0579 16.6307V15.9057V15C20.0579 12.2107 17.7893 9.94214 15 9.94214C12.2107 9.94214 9.94214 12.2107 9.94214 15C9.94214 17.7893 12.2107 20.0579 15 20.0579C16.355 20.0579 17.6257 19.5286 18.5836 18.565C19.1407 19.4321 20.0486 19.9757 21.0821 20.0586C21.1707 20.0657 21.2614 20.0693 21.3507 20.0693C22.0786 20.0693 22.7993 19.8257 23.3807 19.385C23.98 18.9293 24.4279 18.2714 24.675 17.4807C24.7143 17.3529 24.7871 17.0607 24.7871 17.0586L24.7893 17.0479C24.935 16.4136 25 15.7814 25 15C25 9.48571 20.5143 5 15 5Z" fill="white"/>
</svg>
